<svg width="24" height="24" viewBox="0 0 24 24" fill="none" xmlns="http://www.w3.org/2000/svg">
<path d="M19 2H18.26V1C18.26 0.45 17.81 0 17.26 0C16.71 0 16.26 0.45 16.26 1V2H7.74V1C7.74 0.45 7.29 0 6.74 0C6.19 0 5.74 0.45 5.74 1V2H5C2.24 2 0 4.24 0 7V19C0 21.76 2.24 24 5 24H19C21.76 24 24 21.76 24 19V7C24 4.24 21.76 2 19 2ZM22 19C22 20.65 20.65 22 19 22H5C3.35 22 2 20.65 2 19V7C2 5.35 3.35 4 5 4H5.74V5.01C5.74 5.56 6.19 6.01 6.74 6.01C7.29 6.01 7.74 5.56 7.74 5.01V4H16.26V5.01C16.26 5.56 16.71 6.01 17.26 6.01C17.81 6.01 18.26 5.56 18.26 5.01V4H19C20.65 4 22 5.35 22 7V19Z" fill="black"/>
<path d="M18.1512 8H5.78125C5.23125 8 4.78125 8.45 4.78125 9C4.78125 9.55 5.23125 10 5.78125 10H18.1512C18.7012 10 19.1512 9.55 19.1512 9C19.1512 8.45 18.7012 8 18.1512 8Z" fill="black"/>
</svg>
