<svg width="25" height="25" viewBox="0 0 25 25" fill="none" xmlns="http://www.w3.org/2000/svg">
<path d="M12.352 4.56607C12.0184 4.56607 11.7481 4.83643 11.7481 5.16998V12.0084L6.29401 15.2761C6.00726 15.4469 5.91481 15.818 6.08568 16.1047C6.19921 16.2931 6.39936 16.3985 6.60418 16.3985C6.71069 16.3985 6.8172 16.3704 6.91435 16.3119L12.6342 12.886H12.633C12.825 12.7842 12.956 12.5829 12.956 12.3512V5.16962C12.956 4.83606 12.6856 4.56607 12.352 4.56607ZM14.5465 1.55821C15.6397 1.55821 16.7176 1.76771 17.7324 2.17384L17.8354 2.2148C18.8923 2.65251 19.8497 3.29624 20.655 4.11081L20.8188 4.28168C21.5105 5.01901 22.0676 5.8734 22.4632 6.8062L22.5124 6.93026C22.9314 7.95902 23.1456 9.05332 23.1456 10.1652V14.5378C23.1456 15.6836 22.9174 16.8177 22.4726 17.8735L22.3836 18.076C21.9822 18.9666 21.4309 19.7824 20.7568 20.4869L20.4548 20.7877C19.7104 21.4958 18.8596 22.0529 17.9103 22.4567L17.7746 22.5117C16.7458 22.9307 15.6515 23.1437 14.5419 23.1449H10.0592C8.98832 23.132 7.94197 22.9202 6.95063 22.5211L6.76805 22.445C5.79193 22.0272 4.91646 21.4396 4.15568 20.6988L4.05386 20.597C3.27435 19.8128 2.66692 18.9046 2.23855 17.8887L2.22451 17.8559C1.77974 16.8003 1.55853 15.6884 1.55853 14.538V10.1642C1.55853 9.11316 1.75165 8.07151 2.12617 7.09188C2.12734 7.08954 2.21863 6.86132 2.21863 6.86132C2.62945 5.87234 3.21698 4.97583 3.95669 4.20572L4.12055 4.03836C4.83567 3.33144 5.67252 2.7568 6.59129 2.33779L6.75865 2.26171C7.8284 1.80057 8.96371 1.56184 10.1234 1.5583L14.5465 1.55821ZM14.5453 0.351562H10.1445C8.80316 0.351562 7.48996 0.627774 6.25863 1.16263L6.09126 1.2387C5.04374 1.7174 4.08284 2.37866 3.26472 3.18738C3.2062 3.2459 3.09267 3.36177 3.09267 3.36177C2.24647 4.24073 1.57114 5.27066 1.10298 6.40019C1.09362 6.4236 0.998812 6.66002 0.998812 6.66002C0.571607 7.77774 0.351562 8.96566 0.351562 10.164V14.5379C0.351562 15.8475 0.605542 17.1244 1.11468 18.331L1.12638 18.3579C1.61444 19.5166 2.32021 20.5664 3.2097 21.4596L3.30451 21.5544C4.17294 22.4029 5.19121 23.0841 6.30764 23.5616C6.32169 23.5674 6.48555 23.6341 6.48555 23.6341C7.62085 24.0941 8.82169 24.3375 10.0517 24.3516H14.5425C15.8088 24.3504 17.06 24.1058 18.235 23.6271L18.3813 23.5674C19.4721 23.1039 20.4506 22.4602 21.3062 21.6433L21.628 21.3214C22.4017 20.5139 23.0314 19.5787 23.4901 18.557L23.5838 18.3416C24.0906 17.1373 24.3516 15.8441 24.3516 14.538V10.1654C24.3516 8.89668 24.1069 7.64907 23.6294 6.47529L23.5732 6.33602C23.1203 5.26629 22.4812 4.28786 21.6865 3.44285L21.5121 3.26262C20.5945 2.33332 19.5014 1.5995 18.296 1.09974C18.1953 1.05877 18.1801 1.05292 18.1801 1.05292C17.0237 0.590613 15.7907 0.351562 14.5453 0.351562Z" fill="black" stroke="black" stroke-width="0.7"/>
</svg>
